<svg width="33" height="32" viewBox="0 0 33 32" fill="none" xmlns="http://www.w3.org/2000/svg">
<path d="M5.652 21.94C4.508 17.364 3.936 15.0773 5.13733 13.5387C6.33733 12 8.69733 12 13.4133 12H19.5867C24.304 12 26.6613 12 27.8627 13.5387C29.064 15.076 28.492 17.3653 27.348 21.94C26.62 24.8507 26.2573 26.3053 25.172 27.1533C24.0867 28 22.5867 28 19.5867 28H13.4133C10.4133 28 8.91333 28 7.828 27.1533C6.74266 26.3053 6.37866 24.8507 5.652 21.94Z" stroke="#EBE7E7" stroke-width="1.5"/>
<path d="M26.5 12.6667L25.5533 9.19337C25.188 7.85337 25.0053 7.18404 24.6307 6.67871C24.2571 6.17666 23.7497 5.78991 23.1667 5.56271C22.58 5.33337 21.8867 5.33337 20.5 5.33337M6.5 12.6667L7.44667 9.19337C7.812 7.85337 7.99467 7.18404 8.36933 6.67871C8.7429 6.17666 9.25025 5.78991 9.83333 5.56271C10.42 5.33337 11.1133 5.33337 12.5 5.33337" stroke="#EBE7E7" stroke-width="1.5"/>
<path d="M12.5 5.33333C12.5 4.97971 12.6405 4.64057 12.8905 4.39052C13.1406 4.14048 13.4797 4 13.8333 4H19.1667C19.5203 4 19.8594 4.14048 20.1095 4.39052C20.3595 4.64057 20.5 4.97971 20.5 5.33333C20.5 5.68696 20.3595 6.02609 20.1095 6.27614C19.8594 6.52619 19.5203 6.66667 19.1667 6.66667H13.8333C13.4797 6.66667 13.1406 6.52619 12.8905 6.27614C12.6405 6.02609 12.5 5.68696 12.5 5.33333Z" stroke="#EBE7E7" stroke-width="1.5"/>
<path d="M11.1667 17.3334V22.6667M21.8333 17.3334V22.6667M16.5 17.3334V22.6667" stroke="#EBE7E7" stroke-width="1.5" stroke-linecap="round" stroke-linejoin="round"/>
</svg>
