<svg width="26" height="26" viewBox="0 0 26 26" fill="none" xmlns="http://www.w3.org/2000/svg">
<path d="M2.15204 18.94C1.00804 14.364 0.436043 12.0773 1.63738 10.5387C2.83738 9 5.19738 9 9.91338 9H16.0867C20.804 9 23.1614 9 24.3627 10.5387C25.564 12.076 24.992 14.3653 23.848 18.94C23.12 21.8507 22.7574 23.3053 21.672 24.1533C20.5867 25 19.0867 25 16.0867 25H9.91338C6.91338 25 5.41338 25 4.32804 24.1533C3.24271 23.3053 2.87871 21.8507 2.15204 18.94Z" stroke="#FF7009" stroke-width="1.5"/>
<path d="M23 9.66659L22.0533 6.19325C21.688 4.85325 21.5053 4.18392 21.1307 3.67859C20.7571 3.17654 20.2497 2.78979 19.6667 2.56259C19.08 2.33325 18.3867 2.33325 17 2.33325M3 9.66659L3.94667 6.19325C4.312 4.85325 4.49467 4.18392 4.86933 3.67859C5.2429 3.17654 5.75025 2.78979 6.33333 2.56259C6.92 2.33325 7.61333 2.33325 9 2.33325" stroke="#FF7009" stroke-width="1.5"/>
<path d="M9 2.33333C9 1.97971 9.14048 1.64057 9.39052 1.39052C9.64057 1.14048 9.97971 1 10.3333 1H15.6667C16.0203 1 16.3594 1.14048 16.6095 1.39052C16.8595 1.64057 17 1.97971 17 2.33333C17 2.68696 16.8595 3.02609 16.6095 3.27614C16.3594 3.52619 16.0203 3.66667 15.6667 3.66667H10.3333C9.97971 3.66667 9.64057 3.52619 9.39052 3.27614C9.14048 3.02609 9 2.68696 9 2.33333Z" stroke="#FF7009" stroke-width="1.5"/>
<path d="M7.66675 14.3333V19.6666M18.3334 14.3333V19.6666M13.0001 14.3333V19.6666" stroke="#FF7009" stroke-width="1.5" stroke-linecap="round" stroke-linejoin="round"/>
</svg>
