<svg width="33" height="31" viewBox="0 0 33 31" fill="none" xmlns="http://www.w3.org/2000/svg">
<path fill-rule="evenodd" clip-rule="evenodd" d="M16.3266 0.883057C25.0305 0.883057 32.0863 6.53807 32.0863 13.5139C32.0863 15.9505 31.2248 18.2255 29.7335 20.155C29.6597 20.2648 29.5632 20.3861 29.4417 20.5202L29.4325 20.5302C28.923 21.1403 28.3494 21.713 27.7186 22.2416C23.3605 26.2734 16.1871 31.0736 15.2403 30.333C14.4173 29.6893 16.5959 26.5407 14.0824 26.0167C13.9071 25.9965 13.7322 25.9749 13.5588 25.9503L13.5555 25.9501V25.9499C6.17318 24.9002 0.567078 19.7318 0.567078 13.5139C0.56685 6.53807 7.62278 0.883057 16.3266 0.883057V0.883057Z" fill="white"/>
<path fill-rule="evenodd" clip-rule="evenodd" d="M7.1833 17.5421H10.3618C10.8139 17.5421 11.1837 17.1718 11.1837 16.7193V16.6507C11.1837 16.1982 10.8139 15.828 10.3618 15.828H8.07377V10.6178C8.07377 10.1653 7.70398 9.79517 7.25187 9.79517H7.1833C6.73118 9.79517 6.36139 10.1653 6.36139 10.6178V16.7192C6.36139 17.1718 6.73118 17.5421 7.1833 17.5421ZM26.8787 13.7176V13.649C26.8787 13.1965 26.5088 12.8263 26.0567 12.8263H23.7688V11.5238H26.0567C26.5088 11.5238 26.8787 11.1536 26.8787 10.7011V10.6325C26.8787 10.18 26.5088 9.80985 26.0567 9.80985H22.8782C22.4261 9.80985 22.0563 10.18 22.0563 10.6325V16.7339C22.0563 17.1864 22.4261 17.5566 22.8782 17.5566H26.0567C26.5088 17.5566 26.8787 17.1864 26.8787 16.7339V16.6653C26.8787 16.2127 26.5088 15.8426 26.0567 15.8426H23.7688V14.54H26.0567C26.5088 14.5403 26.8787 14.17 26.8787 13.7176ZM20.7662 17.2968L20.7664 17.2965C20.9185 17.143 21.0039 16.9356 21.0041 16.7194V10.618C21.0041 10.1655 20.6343 9.7954 20.182 9.7954H20.1135C19.6613 9.7954 19.2916 10.1655 19.2916 10.618V14.1996L16.3207 10.2114C16.1788 9.96338 15.9116 9.7954 15.6071 9.7954H15.5385C15.0864 9.7954 14.7165 10.1655 14.7165 10.618V16.7194C14.7165 17.1719 15.0863 17.5422 15.5385 17.5422H15.6071C16.0592 17.5422 16.429 17.1719 16.429 16.7194V13.0708L19.4212 17.1614C19.4396 17.19 19.4597 17.2176 19.4815 17.2438L19.4816 17.244C19.5638 17.3562 19.6762 17.4331 19.8015 17.4802C19.8979 17.52 20.0032 17.5421 20.1133 17.5421H20.1819C20.3159 17.5421 20.4478 17.5091 20.5659 17.446C20.6481 17.4069 20.7174 17.3563 20.7662 17.2968ZM12.669 17.5421H12.7375C13.1897 17.5421 13.5595 17.1718 13.5595 16.7193V10.6179C13.5595 10.1654 13.1897 9.79528 12.7375 9.79528H12.669C12.2169 9.79528 11.847 10.1654 11.847 10.6179V16.7193C11.847 17.1718 12.2169 17.5421 12.669 17.5421Z" fill="#FF7009"/>
</svg>
