<svg width="23" height="18" viewBox="0 0 23 18" fill="none" xmlns="http://www.w3.org/2000/svg">
<path d="M10.0625 18C10.0625 18 8.625 18 8.625 16.5C8.625 15 10.0625 10.5 15.8125 10.5C21.5625 10.5 23 15 23 16.5C23 18 21.5625 18 21.5625 18H10.0625ZM15.8125 9C16.9562 9 18.0531 8.52589 18.8619 7.68198C19.6707 6.83807 20.125 5.69347 20.125 4.5C20.125 3.30653 19.6707 2.16193 18.8619 1.31802C18.0531 0.474106 16.9562 0 15.8125 0C14.6688 0 13.5719 0.474106 12.7631 1.31802C11.9544 2.16193 11.5 3.30653 11.5 4.5C11.5 5.69347 11.9544 6.83807 12.7631 7.68198C13.5719 8.52589 14.6688 9 15.8125 9ZM7.498 18C7.2849 17.5317 7.17862 17.0183 7.1875 16.5C7.1875 14.4675 8.165 12.375 9.9705 10.92C9.06932 10.6303 8.13043 10.4886 7.1875 10.5C1.4375 10.5 0 15 0 16.5C0 18 1.4375 18 1.4375 18H7.498ZM6.46875 9C7.42187 9 8.33596 8.60491 9.00992 7.90165C9.68387 7.19839 10.0625 6.24456 10.0625 5.25C10.0625 4.25544 9.68387 3.30161 9.00992 2.59835C8.33596 1.89509 7.42187 1.5 6.46875 1.5C5.51563 1.5 4.60154 1.89509 3.92759 2.59835C3.25363 3.30161 2.875 4.25544 2.875 5.25C2.875 6.24456 3.25363 7.19839 3.92759 7.90165C4.60154 8.60491 5.51563 9 6.46875 9Z" fill="#FF7009"/>
</svg>
